/* XPM */
static char *_5e331907a0447bfdc1530a2fbacd425ElD4XD9fb0xYk1AZ[] = {
/* columns rows colors chars-per-pixel */
"40 40 100 2 ",
"   c gray2",
".  c #2C1E27",
"X  c #3D2936",
"o  c #5FB085",
"O  c #68AF89",
"+  c #70A58F",
"@  c #64B58C",
"#  c #7CA994",
"$  c #71B493",
"%  c #4EDF98",
"&  c #58D797",
"*  c #51DE99",
"=  c #5FDA9E",
"-  c #65C99D",
";  c #67D098",
":  c #4EE094",
">  c #44ED98",
",  c #4DE89B",
"<  c #48ED99",
"1  c #53E19A",
"2  c #53E59D",
"3  c #50EE9F",
"4  c #73C7A2",
"5  c #78C6A4",
"6  c #71CCA3",
"7  c #7DC8A6",
"8  c #65D9A2",
"9  c #6FDDA1",
"0  c #68DCA5",
"q  c #7BD4AB",
"w  c #70D9A8",
"e  c #5CE4A1",
"r  c #5BE9A0",
"t  c #5EEFA9",
"y  c #6DE1A9",
"u  c #69E4AA",
"i  c #63EBAA",
"p  c #6EE9AF",
"a  c #70E4AE",
"s  c #64F0A9",
"d  c #62F7AE",
"f  c #74E8B2",
"g  c #78EBB7",
"h  c #7BE9B8",
"j  c #6DF5B2",
"k  c #61FFB1",
"l  c #66FFB1",
"z  c #69FFB2",
"x  c #6BFEB3",
"c  c #6BFFB3",
"v  c #75F0B4",
"b  c #76FFB9",
"n  c #77FDBB",
"m  c #74FFBB",
"M  c #7BFFBB",
"N  c #7DFABD",
"B  c #7BFFBE",
"V  c #7EFFBC",
"C  c #8ADFB4",
"Z  c #87EEB7",
"A  c #8AE8B9",
"S  c #96E7BE",
"D  c #80F3BC",
"F  c #89F2BE",
"G  c #86F8C1",
"H  c #81FFC0",
"J  c #82FFC0",
"K  c #84FFC2",
"L  c #87FFC2",
"P  c #89FFC1",
"I  c #8CFFC2",
"U  c #89FFC4",
"Y  c #8AFFC5",
"T  c #8DFFC6",
"R  c #8FFFCB",
"E  c #94F2C6",
"W  c #91FFC9",
"Q  c #94FFC9",
"!  c #94FFCB",
"~  c #91FFCF",
"^  c #97FECE",
"/  c #9DFBCC",
"(  c #99FFCF",
")  c #9AFFCE",
"_  c #9CFFD3",
"`  c #A4ECCB",
"'  c #A1F5CC",
"]  c #B1EED3",
"[  c #A0FFD0",
"{  c #A4FFD5",
"}  c #ABFFD5",
"|  c #ABFFD7",
" . c #ACFFDF",
".. c #B3FFDD",
"X. c #BAFFDD",
"o. c #BAFFDF",
"O. c #B2FFE0",
"+. c #BBFFE3",
"@. c #C3FFE6",
"#. c #CCFFEB",
/* pixels */
". . . . . . . . . . . . . . . . . . . . . . . . . . . . . . . . . . .   . . . . ",
". X X X X X X X X X X X X X X X X X X X X X X X X X X X X X X X X X X   X X X . ",
". X X X X X X X X X X X X X X X X X X X X X X X X X X X X X X X X X X X X X X . ",
"  X X X X X X X X X X X X X X X X X X X X X X X X X X X X X X X X X X X X X X . ",
"  X X X X X X X X X X X X X X X X X X X X X X X X X X X X X X X X X X X X X X . ",
"  X X X X X X X X X X X X X X X X X X X X X X X X X X X X X X X X X X X X X X . ",
"  X X X X X       X X X X X X X X +.X.+.X.@.#.X X X X X X X X X X X X X X X X . ",
". X X X X X X X X X X X X X C +.[ p ; u 0 y A X.@.` X X X X X X X X X X X X X . ",
". X X X X X X X X X X X Z W V 2 * j K U W ( N = = N | +.X X X X X X X X X X X . ",
". X X X X X X X X X X I L l c K U L ( { | { ( W m 3 r v +.X X X X X X X X X X . ",
". X X X X X X X X X P M c V K L W ( | | X.| R U K K m i p X.        X X X X X . ",
". X X X X X X X X I B c K K K B n  .O.^ ^  ._ U U H K K t p #.X X X X X X X X . ",
". X X X X X X X 9 L c K K H U K e { ..h u _ _ K K V K K K p F X.X X X X X X X . ",
". X X X X X X X P c H H K U _ _ p {  .N j ~ _ ~ U K K K U K u +.# X X X X X X . ",
". X X X X X X ; L c L H H c |  . .{ _ { ~ U _ _ W T U T _ { p F ] X X X X X X . ",
". X X X X X X Q W B U U H 1 U ( _ T T n m V U K _ _ T _ { _ K 0 #.X X X X X X . ",
". X X X X X X T { P T W _ i r % B U _ e , < n U _ | ( { _ T ) 8 +.+ X X X X X . ",
". X X X X X 7 { ( T ) [ _ _ ~ < m U _ ~ ~ k , U (  .{ [ Q ( [ D A #.X X X X X . ",
". X X X X X 6  .U ) { _ { ~ L > n U _ _ ~ ~ B W U W [ Q [ [ | ( q @.X X X X X . ",
". X X X X X 5 O.[ { { { _ U L > n K T _ W W W W U { Q [ | | | Q w +.X X X X X . ",
". X X X X X 5 O.| [ [ [ U H n > n K ~ e 2 2 c _ { [ [ } | } | Q 0 X.X X X X X . ",
". X X X X X 7 X.| | _ T U H K > m K _ N M W s n Q  .| | } { [ T 8 X.X X X X X . ",
". X X X X X q +.| _ T P K H K , m P { _ {  .p j [ X...| { [ W j f @.X X X X X . ",
". X X X X X X / ..W L L K n R K B L  . . . .W T | | | { [ W P % [ X X X X X X . ",
". X X X X X X ' | R L V n < K ~ U W { | | Q [ | [ G [ [ W L K e +.X X X X X X . ",
". X X X X X X @  ._ K K n > 3 3 t _ { a D { I y v ( ( W L K l L C X X X X X X . ",
". X X X X X X X E { T L n n l d 2 ~  .8 h  .} F W _ W U V K c W X X X X X X X . ",
"  X X X X X X X @ X.( L L L W P r _  .g N  .| | { W D K K c P Z X X X X X X X . ",
"    X X X X X X X A | ( T P ) ) : e _ N & v  ._ R L V K c V P X X X X X X X X   ",
"  X X X X X X X X X A ..[ { [ ) V V [ [ T T [ W P U K x B L X X X X X X X X X   ",
". X X X X X X X X X X S +.X.X.( [ | | | | { R T B c x P I X X X X X X X X X X   ",
". X X X X X X X X X X X $ / +.X.+. .| X.| ^ ) { ^ K P 8 X X X X X X X X X X X   ",
". X X X X X X X X X X X X X O / ' X.+.X.O...{ U W ; X X X X X X X X X X X X X . ",
". X X X X X X X X X X X X X X X X q 4 4 - - = X X X X X X X X   X X X X X X X . ",
". X X X X X X X X X X X X X X X X X X X X X X X X X X X X X         X X X X X . ",
". X X X X X X X X X X X X X X X X X X X X X X X X X X X X X X X   X X X X X X . ",
". X X X X X X X X X X X X X X X X X X X X X X X X X X X X X X X X X X X X X X . ",
". X X X X X X X X X X X X X X X X X X X X X X X X X X X X X X X X X X X X X X . ",
". X X   X X X X X X X X X X X X X X X X X X X X X X X X X X X X X X X X X X X . ",
". . .   . . . . . . . . .         . . . . . . . . . . . . . . . . . . . . . . . "
};
