/* XPM */
static char *_7dc52a5deb54689df1a693d6b2271adOSuSywtwuj4Kox50[] = {
/* columns rows colors chars-per-pixel */
"40 40 173 2 ",
"   c #040404",
".  c #0D0202",
"X  c #0A0807",
"o  c #030409",
"O  c #040A0F",
"+  c #0A0909",
"@  c #190402",
"#  c #180B07",
"$  c #160B08",
"%  c #13120E",
"&  c #160E13",
"*  c #001011",
"=  c #0F1111",
"-  c #141313",
";  c #191317",
":  c #121119",
">  c #1D141A",
",  c #1B1B16",
"<  c #2D0C03",
"1  c #270A04",
"2  c #310E05",
"3  c #3F0D01",
"4  c #2B120B",
"5  c #22171D",
"6  c #24191E",
"7  c #24221B",
"8  c #29251D",
"9  c #30251C",
"0  c #000021",
"q  c #191722",
"w  c #1D1D34",
"e  c #261A23",
"r  c #2C1E27",
"t  c #2D1F28",
"y  c #201F34",
"u  c #2A2324",
"i  c #2F2029",
"p  c #2C2820",
"a  c #34232E",
"s  c #223029",
"d  c #202039",
"f  c #372531",
"g  c #392733",
"h  c #3D2936",
"j  c #3C3D33",
"k  c #4B170A",
"l  c #541605",
"z  c #661804",
"x  c #4B2A1A",
"c  c #7C2003",
"v  c #7D2D11",
"b  c #523A29",
"n  c #453F34",
"m  c #4D4233",
"M  c #444033",
"N  c #5A513E",
"B  c #574836",
"V  c #67553E",
"C  c #654C37",
"Z  c #181B5B",
"A  c #29294A",
"S  c #252541",
"D  c #2E2E52",
"F  c #2B2C6E",
"G  c #343465",
"H  c #3A3967",
"J  c #393969",
"K  c #353672",
"L  c #3D3E73",
"P  c #3F407E",
"I  c #4C5141",
"U  c #5C5240",
"Y  c #625D46",
"T  c #556554",
"R  c #646752",
"E  c #656A54",
"W  c #6C735D",
"Q  c #65735E",
"!  c #444376",
"~  c #43437C",
"^  c #5D5C7F",
"/  c #58537A",
"(  c #6C7861",
")  c #930D00",
"_  c #8F1700",
"`  c #931B00",
"'  c #AF1600",
"]  c #A11D00",
"[  c #8E2304",
"{  c #942403",
"}  c #9C2503",
"|  c #B32100",
" . c #BC2702",
".. c #B72A00",
"X. c #A72803",
"o. c #843F22",
"O. c #C82A01",
"+. c #D72B01",
"@. c #CD3002",
"#. c #E32F00",
"$. c #FD2C00",
"%. c #F22900",
"&. c #FF3200",
"*. c #F53800",
"=. c #FD3B00",
"-. c #A64723",
";. c #FF4501",
":. c #EE531E",
">. c #FF5A1C",
",. c #FF5614",
"<. c #C55F33",
"1. c #E16D3B",
"2. c #FF6F34",
"3. c #FF7838",
"4. c #89795D",
"5. c #A07C58",
"6. c #887D61",
"7. c #B2835D",
"8. c #8A8266",
"9. c #948464",
"0. c #9E916F",
"q. c #A09867",
"w. c #A3926E",
"e. c #A59673",
"r. c #AB9D77",
"t. c #B39F77",
"y. c #BFA87B",
"u. c #FF8749",
"i. c #FF9551",
"p. c #C79F73",
"a. c #EFA570",
"s. c #FFBB79",
"d. c #464682",
"f. c #4A4A84",
"g. c #4C4C8E",
"h. c #595580",
"j. c #625F8D",
"k. c #837A8B",
"l. c #958780",
"z. c #95938A",
"x. c #A89790",
"c. c #B0A19F",
"v. c #C5B185",
"b. c #CAB486",
"n. c #D5BD8E",
"m. c #C4B99F",
"M. c #D3BD9C",
"N. c #E5B784",
"B. c #DFD29D",
"V. c #FFC583",
"C. c #E6CD9A",
"Z. c #E1D694",
"A. c #FFD493",
"S. c #CFC7A9",
"D. c #C1C0A2",
"F. c #DCD8A6",
"G. c #E0D7A0",
"H. c #F3DAA5",
"J. c #DCEDBC",
"K. c #EAE4AC",
"L. c #FFE0A1",
"P. c #FFE9A7",
"I. c #FFE4A8",
"U. c #FFECAF",
"Y. c #FDF1AB",
"T. c #F3EBB3",
"R. c #FEEDB2",
"E. c #F1E6B1",
"W. c #FFF3B5",
"Q. c #FFF7B8",
"!. c #FFFCBB",
"~. c #FFFDB0",
"^. c #FDFDC3",
/* pixels */
"r r t r r r r r r r r r r r r r r r r r r r r r r r t r r r r r r r r + i r r r ",
"r h h h h h h h h h h h h h h h a ; X   + + o ; a h h h h h h h h h h o h h h r ",
"r h h h h h h h h h h h h a a f r ; : : - : - ; i a a f h h h h h h h h h h h r ",
"  h h h h h h h h h h h a > ; & ; w D D A D D d ; - & > a h h h h h h h h h h r ",
"  h h h h h h h h h h g e & +   q D ~ d.! d.~ D q X X + e h h h h h h h h h h r ",
"X h h h h h h h h h i 6 q y S d A J f.~ ~ d.~ H A d S d q 6 i h h h h h h h h r ",
"  h h h h h       g 5 X y G P L L L L P P ! P H L L ~ H y + 5 g h h h h h h h r ",
"i h h h h h h h h g ; X d L g.d.~ ! L L P J P ! ~ d.g.J d   ; g h h h h h h h r ",
"r h h h h h h h h g > X w J d.P ! L L L L ! L ! P ! d.J w X > g h h h h h h h r ",
"r h h h h h h h h h > X y J d.L K K L L L L K K K L ~ H y + > h g n h h h h h r ",
"t h h h h h h h h g > X w J P K F F K J L K F F F K P J y X     o o h h h h h r ",
"r h h h h h h h h h >   w G f.h.h.^ / ! L ! / ^ h.h.f.G w   > g h h h h h h h r ",
"r h h h h h h h h h 5   0 Z j.m.S.D.x./ F / x.D.S.c.j.Z 0   > h h h h h h h h r ",
"r h h h h h h h h f 5 % w G j.M.Y.~.H.k.! k.H.~.~.C.j.G w % 5 f g h h h h h h r ",
"r h h h h h h f e 6 m 9.z.z.l.6.0.Z.U.m.z.m.U.Z.q.6.l.z.z.9.m 6 e g h h h h h r ",
"r h h h h h h f - - 4.H.!.T.0.p 8 w.U.R.H.R.R.w.8 p 0.T.!.H.4.- & f h h h h h r ",
"t h h h h h h f 6 > N t.T.^.y.    4.W.!.Y.!.W.4.    y.^.T.y.N ; 5 g h h h h h r ",
"r h h h h h h h f a 6 7 0.W.b.,   9.R.~.I.Q.W.9.X , b.R.0.8 e i g h h h h h h r ",
"r h h h h h h h h h 5   M r.e.U Y v.W.Q.P.Q.~.x.Y U e.r.n   5 h h h h h h h h r ",
"r h h h h h h h h h 5   * s R r.F.R.!.!.!.!.!.P.Z.r.E s O   5 h h h h h h h h r ",
"r h h h h h h h g a 6 1 @ . b y.K.C.n.n.n.n.C.B.K.y.b . @ 1 6 a g h h h h h h r ",
"r h h h h h h h e ; k } { _ v V T I m M m n M I T V v _ { { k ; e g h h h h h r ",
"t h h h h h h f + # [ =.;.=...3   o + + X + + o   3 ..;.;.=.[ # > a g h h h h r ",
"r h h h h h 5 6 k [ @.=.;.;.%.) z C W ( W W W C z ) %.;.;.=.@.[ k 5 e h h h h r ",
"r h h h h h + 4 { *.=.*.=.=.&.%.:.a.T.T.H.T.E.a.:.%.$.=.=.*.=.*.{ 4 + g h h h r ",
"r h h h h h X 2 | &.&.&.O.}  .&.,.i.V.V.s.V.N.i.,.$. .} O.$.&.&.| 2 + n h h h r ",
"r h h h h h o < ` $.$.$.` 2 l @.;.,.>.>.>.>.>.,.;.+.l 2 ` $.&.$.] 2 . h h h h r ",
"  h h h h h + 4 -.3.3.2.o.O X _ ..| ' ' ' ' ' | ..c + * o.2.3.2.-.4 o h h h h r ",
"    h h h h + p 7.A.P.A.7.,   @ < 1 < < < < < < 1 @   , 5.A.I.A.5.a X g h h n o ",
"X h h h h h & p 8.F.J.F.6.6 X X # $ $ # # # @ $ # .   7 8.F.J.F.6.r & n h h g o ",
"r h h h h h r r n R Q R j * 1 z { { [ } X.} [ { { z < = j R Q E n e e h h h g o ",
"r h h h h h h a -           l O.;.=.=.&.*.=.=.=.;.@.k o         > g h h h h n o ",
"r h h h h h h h r > > > = o l +.&.$.$. .{ O.$.&.&.+.l o $ > > > r h h h h h h r ",
"r h h h h h h h h h h g e O l O.=.=.#.z $ l #.=.&.O.l O e h g o h h h h h h h r ",
"r h h h h h h h h h h h e o x <.u.u.1.x   x 1.u.u.<.x o e h   o   o h h h h h r ",
"r h h h h h h h h h h h e   b p.H.I.N.B o B N.I.H.p.b   e h h h   h h h h h h r ",
"r h h h h h h h h h h h e   m b.!.^.C.N X N C.^.!.b.m   e h h h n g h h h h h r ",
"i h h h h h h h h h h h f h h h h h h h h h h h h h h h g n h h h g h h h h h r ",
"r h h   h h h h h h h h h h h h h h h h h h h h h h h h h h h h h h h h h h h r ",
"r r r   i r r r r t t t t     o   r r r r t r r r r r r r r r r r r r r r r r r "
};
