/* XPM */
static char *result[] = {
/* columns rows colors chars-per-pixel */
"40 40 220 2 ",
"   c gray2",
".  c #052D08",
"X  c #072F0A",
"o  c #063C09",
"O  c #093C0B",
"+  c #08390C",
"@  c #083B0C",
"#  c #093B0D",
"$  c #2C1E27",
"%  c #2D2628",
"&  c #2E2B2A",
"*  c #2F2B2A",
"=  c #2E2E2A",
"-  c #31272C",
";  c #31282C",
":  c #32282D",
">  c #332B2D",
",  c #332B2E",
"<  c #36282F",
"1  c #36292F",
"2  c #293726",
"3  c #263825",
"4  c #263925",
"5  c #273B25",
"6  c #273D26",
"7  c #293826",
"8  c #2E322B",
"9  c #2B3628",
"0  c #2C3628",
"q  c #2F332C",
"w  c #30302D",
"e  c #362A30",
"r  c #362B30",
"t  c #372B31",
"y  c #372B32",
"u  c #362C30",
"i  c #392832",
"p  c #3A2933",
"a  c #382D32",
"s  c #382E33",
"d  c #3B2934",
"f  c #3A2A34",
"g  c #3B2A34",
"h  c #3D2936",
"j  c #07420B",
"k  c #08430C",
"l  c #08440C",
"z  c #08450D",
"x  c #124D14",
"c  c #134E14",
"v  c #144C16",
"b  c #154D17",
"n  c #184E1B",
"m  c #135017",
"M  c #155119",
"N  c #16531A",
"B  c #155518",
"V  c #155419",
"C  c #16551A",
"Z  c #17541B",
"A  c #19531B",
"S  c #1B511E",
"D  c #1C551F",
"F  c #175B1A",
"G  c #165A1B",
"H  c #175A1B",
"J  c #185B1B",
"K  c #185B1C",
"L  c #1A5A1D",
"P  c #1A591E",
"I  c #1A5D1D",
"U  c #1B5E1D",
"Y  c #1B5C1F",
"T  c #1C5C1D",
"R  c #1B611F",
"E  c #1C611F",
"W  c #1F5F22",
"Q  c #294128",
"!  c #294229",
"~  c #2B462B",
"^  c #205C23",
"/  c #1B6120",
"(  c #1D6121",
")  c #1E6321",
"_  c #1F6022",
"`  c #1E6322",
"'  c #1E6620",
"]  c #1F6522",
"[  c #206424",
"{  c #216824",
"}  c #216925",
"|  c #206A24",
" . c #27722B",
".. c #257729",
"X. c #29742C",
"o. c #28752C",
"O. c #29772D",
"+. c #2A762E",
"@. c #287B2B",
"#. c #2A782E",
"$. c #2A792E",
"%. c #2C792F",
"&. c #2C7A2F",
"*. c #2D7B32",
"=. c #2D7C31",
"-. c #2E7C30",
";. c #2E8032",
":. c #2F8133",
">. c #308033",
",. c #308133",
"<. c #308034",
"1. c #318034",
"2. c #308134",
"3. c #318134",
"4. c #318135",
"5. c #318234",
"6. c #318335",
"7. c #328235",
"8. c #328335",
"9. c #338336",
"0. c #318435",
"q. c #338436",
"w. c #338536",
"e. c #338537",
"r. c #348537",
"t. c #328B36",
"y. c #318C35",
"u. c #348638",
"i. c #348738",
"p. c #358738",
"a. c #348838",
"s. c #358838",
"d. c #358839",
"f. c #348939",
"g. c #35893A",
"h. c #36893A",
"j. c #368B3A",
"k. c #378B3B",
"l. c #358C39",
"z. c #378C3A",
"x. c #368D3A",
"c. c #378C3B",
"v. c #388C3B",
"b. c #388B3C",
"n. c #388C3C",
"m. c #388D3C",
"M. c #388E3C",
"N. c #398E3C",
"B. c #388F3C",
"V. c #388E3D",
"C. c #398E3D",
"Z. c #398F3D",
"A. c #38903D",
"S. c #39903E",
"D. c #3A903E",
"F. c #3A913E",
"G. c #3A913F",
"H. c #3B913F",
"J. c #3B923F",
"K. c #3B933F",
"L. c #3C9440",
"P. c #3C9540",
"I. c #3D9540",
"U. c #3D9541",
"Y. c #3D9641",
"T. c #3E9741",
"R. c #3E9841",
"E. c #3E9842",
"W. c #3F9942",
"Q. c #3F9A43",
"!. c #3F9B43",
"~. c #3F9A44",
"^. c #409B44",
"/. c #409C44",
"(. c #409D44",
"). c #419E45",
"_. c #429D46",
"`. c #429E46",
"'. c #429F46",
"]. c #42A046",
"[. c #42A146",
"{. c #43A146",
"}. c #43A047",
"|. c #43A147",
" X c #42A246",
".X c #43A247",
"XX c #42A546",
"oX c #44A148",
"OX c #44A248",
"+X c #44A348",
"@X c #45A349",
"#X c #43A448",
"$X c #44A548",
"%X c #45A449",
"&X c #45A549",
"*X c #45A749",
"=X c #46A54A",
"-X c #46A64A",
";X c #46A74A",
":X c #49A74D",
">X c #49A84D",
",X c #4BAF4E",
"<X c #47B04C",
"1X c #4DAC51",
"2X c #52A056",
"3X c #59A75D",
"4X c #56AE59",
"5X c #55B559",
"6X c #5BB25F",
"7X c #5DB760",
"8X c #65BA68",
"9X c #6DB96F",
"0X c #6BBD6E",
"qX c #78BF7B",
"wX c #6FC072",
"eX c #71C174",
"rX c #78C37B",
"tX c #7EC081",
"yX c #A4D4A7",
"uX c #ABD9AD",
/* pixels */
"$ $ $ $ $ $ $ $ $ $ $ $ $ $ $ $ $ $ $ $ $ $ $ $ $ $ $ $ $ $ $ $ $ $ $   $ $ $ $ ",
"$ h h h h h h h h h h h h h h h h h h h h h h h h h h h h h h h h h h   h h h $ ",
"$ h h h h h h h h h h h h h h h h w # O @ @ + = h h h h h h h h h h h h h h h $ ",
"  h h h h h h h h h h h h h h h h q N C C C Z 8 h h h h h h h h h h h h h h h $ ",
"  h h h h h h h h h h h h h h i * 6 +.;.0.6.e.Q & i h h h h h h h h h h h h h $ ",
"  h h h h h h h h h h h h h h % X A i.E.oX}.-X[ . % h h h h h h h h h h h h h $ ",
"  h h h h h       h h h h h h , M { p.~.@XOX>X*.m > h h h h h h h h h h h h h $ ",
"$ h h h h h h h h h h h h h i 3 O.:.v./.'. X6X2X..4 i h h h h h h h h h h h h $ ",
"$ h h h h h h h h h h h h h : n s.Z.U.].`.XXeXqXy.n : h h h h h h h h h h h h $ ",
"$ h h h h h h h h h h h h h y ( u.M.U.].`.XXwXtXx.E y h h h h h h h h h h h h $ ",
"$ h h h h h h h h h h h h p 5 $.h.F./.'.`.XX0XyX3X@.5 p h h         h h h h h $ ",
"$ h h h h h h h h h h h h e S a.m.P.|.'.`.XX8XuX9Xt.S e h h h h h h h h h h h $ ",
"$ h h h h h h h h h h h h r I s.m.L.].'.`.$X7XrX4Xl.U u h h h h h h h h h h h $ ",
"$ h h h h h h h h h h h h t R N.c.L.].'.'.}.1X5X:X/.' t h h h h h h h h h h h $ ",
"$ h h h h h h h h h h h h f ) H.c.L.].'.'._.*X<X#X=X| f h h h h h h h h h h h $ ",
"$ h h h h h h h h h h h h a } F.c.L.].'.'.`.;X,X&X+X .s h h h h h h h h h h h $ ",
"$ h h h h h h h h h h h h ! =.Z.c.L.].'.'.'.|.%X|.{.z.~ h h h h h h h h h h h $ ",
"$ h h h h h h h h h h h h D r.M.c.P.[.'.'.'.'.'.'.].W.^ h h h h h h h h h h h $ ",
"$ h h h h h h h h h h h h F r.M.c.K.).'.'.'.'.'.'.].E./ h h h h h h h h h h h $ ",
"$ h h h h h h h h h h h h P q.M.m.M.E.].'.'.'.'.'.].T.W h h h h h h h h h h h $ ",
"$ h h h h h h h h h h h h P q.M.m.k.U..X'.'.'.'.'.|.R.W h h h h h h h h h h h $ ",
"$ h h h h h h h h h h h h P q.M.m.k.J./.).'.'.'.'.(.I.W h h h h h h h h h h h $ ",
"$ h h h h h h h   h h h   P q.M.m.m.Z.D.^.].'.'.].Y.H._ h h h h h h h h h h h $ ",
"$ h h h h h h h h h h h h P w.A.m.m.n.n./..X|.|..XL.H._ h h h h h h h h h h h $ ",
"$ h h h h h h h h h h h h Y 8.j.m.m.n.b.Y.!.Q.Q.!.H.n._ h h h h h h h h h h h $ ",
"$ h h h h h h h h h h h h L 1.9.B.m.m.m.C.D.D.D.D.D.d.T h h h h h h h h h h h $ ",
"$ h h h h h h h h h h h h x 3.4.S.V.m.m.n.n.n.n.M.S.d.c h h h h h h h h h h h $ ",
"  h h h h h h h h h h h h 2 #.1.d.h.m.m.n.n.n.c.g.f.=.7 h h h h h h h h h h h $ ",
"    h h h h h h h h h h h g ` 7.>.u.S.Z.Z.Z.Z.D.u.6.] g h h h h h h h h h h h   ",
"  h h h h h h h h h h h h < v 5.-.q.G.D.D.D.D.H.q.,.b 1 h h h h h h h h h h h   ",
"$ h h h h h h h h h h h h d 9 +.X.%.2.<.<.<.<.<.&.o.0 d h h h h h h h h h h h   ",
"$ h h h h h h h h h h h h h e V G H K K K K K K J B r h h h h h h h h h h h h   ",
"$ h h h h h h h h h h h h h - o z k j j j j j j l o ; h h h h h h h h h h h h $ ",
"$ h h h h h h h h h h h h h h h h h h h h h h h h h h h h h h   h h h h h h h $ ",
"$ h h h h h h h h h h h h h h h h h h h h h h h h h h h h h         h h h h h $ ",
"$ h h h h h h h h h h h h h h h h h h h h h h h h h h h h h h h   h h h h h h $ ",
"$ h h h h h h h h h h h h h h h h h h h h h h h h h h h h h h h h h h h h h h $ ",
"$ h h h h h h h h h h h h h h h h h h h h h h h h h h h h h h h h h h h h h h $ ",
"$ h h   h h h h h h h h h h h h h h h h h h h h h h h h h h h h h h h h h h h $ ",
"$ $ $   $ $ $ $ $ $ $ $ $         $ $ $ $ $ $ $ $ $ $ $ $ $ $ $ $ $ $ $ $ $ $ $ "
};
