/* XPM */
static char *cmlnaHQ_[] = {
/* columns rows colors chars-per-pixel */
"40 40 164 2 ",
"   c #040405",
".  c #050709",
"X  c #06090A",
"o  c #090909",
"O  c #0C0706",
"+  c #140100",
"@  c #1E0000",
"#  c #120A07",
"$  c #1A0C07",
"%  c #110B0F",
"&  c #180D0A",
"*  c #14110F",
"=  c #0A0910",
"-  c #0C0D1B",
";  c #070A16",
":  c #130E12",
">  c #0D1616",
",  c #171312",
"<  c #1A1116",
"1  c #13121C",
"2  c #1C151B",
"3  c #2A0000",
"4  c #2B0F07",
"5  c #2F1007",
"6  c #331007",
"7  c #25161C",
"8  c #281718",
"9  c #27211F",
"0  c #29241C",
"q  c #2C281F",
"w  c #141421",
"e  c #1A1A2D",
"r  c #1E1C31",
"t  c #251A23",
"y  c #2C1E27",
"u  c #201E31",
"i  c #2E2B23",
"p  c #2F2029",
"a  c #242E27",
"s  c #332C23",
"d  c #32222D",
"f  c #38302A",
"g  c #363126",
"h  c #372530",
"j  c #392632",
"k  c #3D2936",
"l  c #353131",
"z  c #29283C",
"x  c #460000",
"c  c #480000",
"v  c #5C1B0A",
"b  c #6C0B00",
"n  c #661B08",
"m  c #701600",
"M  c #7A1600",
"N  c #7A1E04",
"B  c #7C2409",
"V  c #443A2C",
"C  c #463F31",
"Z  c #4D4434",
"A  c #524C3A",
"S  c #524D37",
"D  c #5D543E",
"F  c #131748",
"G  c #202248",
"H  c #252442",
"J  c #2E2E53",
"K  c #2B2C5A",
"L  c #303056",
"P  c #3A3857",
"I  c #33335B",
"U  c #2D2E6E",
"Y  c #262965",
"T  c #2E306F",
"R  c #383865",
"E  c #3C3C6E",
"W  c #373764",
"Q  c #343571",
"!  c #3E3E74",
"~  c #544D44",
"^  c #495443",
"/  c #5B5643",
"(  c #585048",
")  c #525544",
"_  c #524C59",
"`  c #6B5F49",
"'  c #645744",
"]  c #6D624D",
"[  c #7F725D",
"{  c #414176",
"}  c #44447D",
"|  c #4B497D",
" . c #60597B",
".. c #A51C02",
"X. c #932503",
"o. c #992503",
"O. c #AA2C06",
"+. c #B72B02",
"@. c #C92A02",
"#. c #DA2400",
"$. c #D43101",
"%. c #FF2900",
"&. c #EF3600",
"*. c #F63800",
"=. c #FF3B00",
"-. c #9C421F",
";. c #89593C",
":. c #FF4100",
">. c #F74109",
",. c #FF7233",
"<. c #926F4F",
"1. c #84765A",
"2. c #847656",
"3. c #A16542",
"4. c #8F7F60",
"5. c #7F8166",
"6. c #FF803B",
"7. c #8D8260",
"8. c #978766",
"9. c #8F8F70",
"0. c #9A9877",
"q. c #A4936E",
"w. c #A9977A",
"e. c #B9A67A",
"r. c #F9955D",
"t. c #464681",
"y. c #4A4985",
"u. c #5C5882",
"i. c #4E4E90",
"p. c #79718C",
"a. c #887E88",
"s. c #8E828A",
"d. c #92858C",
"f. c #9D9798",
"g. c #A69890",
"h. c #9BAA89",
"j. c #B1A19D",
"k. c #C2AD82",
"l. c #CBB486",
"z. c #D0B98B",
"x. c #D7C08A",
"c. c #DBC393",
"v. c #DFC79E",
"b. c #DFCD98",
"n. c #D4C896",
"m. c #DCD49F",
"M. c #FFC78C",
"N. c #E7CE9A",
"B. c #E3DD96",
"V. c #CCC2A1",
"C. c #E7CFA2",
"Z. c #E3D6A0",
"A. c #ECD2A3",
"S. c #F7DAA4",
"D. c #FFDEA2",
"F. c #FEE5AB",
"G. c #FCEAAE",
"H. c #F9E5A8",
"J. c #FFF1AE",
"K. c #FFEAB0",
"L. c #FFF5B0",
"P. c #FFF8BA",
"I. c #F7F5B4",
"U. c #FFFFC5",
/* pixels */
"y y y y y y y y y y y y y y y y y y y y y y y y y y y y y y y y y y y . y y y y ",
"y k k k k k k k k k k k k k k k k k k k k k k k k k k k V k k k k k k . k k k y ",
"y k k k k k k k k k k k k k k k k V k k k k k V k k k k k k k k k k k k k k k y ",
"  k k k k k k k k k k k k k k h < . . = = . = O < h k k k k k k k k k k k k k y ",
"  k k k k k k k k k k j h d d p w - 1 1 1 1 1 1 < y d d h j k k k k k k k k k y ",
"  k k k k k k k k k k h 7 < : : u I I J J J I I u < % < t h k k k V k k k k k y ",
"  V k k k k       V k d : o . w K t.y.} } } t.t.K w O . - d k k k k k k k k k y ",
"y k k k k k k k k k k j %   e L E } } } } } } } E L e . % h k k k k k k k k k y ",
"y k k k k k k k k k j d : w L t.} { ! ! ! ! ! ! t.t.J 1 : p j k k k k k k k k y ",
"y k k k k k k k k k t w u J E } } E { ! { ! { ! } t.E J u t 7 k k k k k k k k y ",
"y k k k k k k k k k . 1 K t.} ! ! ! ! { ! ! ! ! E ! } t.L 1 .       k k k k k y ",
"y k k k k k k k k V . 1 I y.} ! ! { { { Q T U U Q ! y.i.W w . k k k k k k k k y ",
"y k k k k k k k k k O 1 J } } ! ! { ! ! ! ! ! ! ! ! } } L 1 o k k k k k k k k y ",
"y k k k k k k k k k . 1 J t.} } { ! U Q  .d.f.f.p.Q Y J u 2 2 k k k k k k k k y ",
"y k k k k k k k k k = - J } } { { ! Y Q s.N.L.H.j.| F - : d j k k k k k k k k y ",
"y k k k k k k k k k . w W } K G Y } u.s.V.J.B.e.g.d._ , : j k k k k k k k k k y ",
"y k k k k k k k k k . w W { e ; F y.g.A.I.F.4.0 ] v.w.q & d k k k k k k k k k y ",
"y k k k k k k k k k < 2 H I ~ D z L g.L.U.F.'   Z H.z.s % d k k k k k k k k k y ",
"y k k k k k k k k k d y : k e.N.~ - [ F.U.F.`   Z S.l.s : d k k k k k k k k k y ",
"y k k k k k k k k k k j 2 9 q.z.2.S q.G.U.G.q.A 7.G.k.s % d k k k k k k k k k y ",
"y k k k k k k k k k k j h y s / q.b.G.P.U.P.S.c.H.U.e.s o d k k k k k k k k k y ",
"y k k k k k k k k k k k k j < . 1.B.m.z.l.l.z.N.Z.n.1.9 < h k k k k k k k k k y ",
"y k k k k k k k . k k k   h :   a ^ ^ Z V g Z D / A f y d j k k k k k k k k k y ",
"y k k k k k k k k k k k k h 2 . + +     . , .     . 2 j k k k k k k k k k k k y ",
"y k k k k k k k k k k k k j 1   m ..x   / q.]   o t p k k k k k k k k k k k k y ",
"y k k k k k k k k k k k h h 2 6 +.&.b X 5.H.q., < j k k k k k k k k k k k k k y ",
"y k k k k k k k k k k h t 8 n o.X.v @   i ] Z % 2 k k k k k k k k k k k k k k y ",
"  k k k k k k k k k k h - 5 @.*.N   X % o . . o 2 j k k k k k k k k k k k k k y ",
"    k k k k k k k k k y = 6 $.:.@.B ;.8.9.1.Z * < j k k k k k k k k k k k k k   ",
"  k k k k k k k k k k d : 4 O.=.%.*.r.G.U.F.1., < j k k k k k k k k k k k k k o ",
"y k k k k k k k k k k h t 8 v o...O.3.0.h.0./ % < j k k k k k k k k k k k k k   ",
"y k k k k k k k k k k k j d < & & & , > > > = o 2 j k k k k k k k k k k k k k   ",
"y k k k k k k k k k k k k k y 1 =   @ x c x 3   2 h k k k k k k k k k k k k k y ",
"y k k k k k k k k k k k k k h d 1 # M #.#.#.M & 2 j k k k k k   k k k k k k k y ",
"y k k k k k k k k k k k k k k k 1 & -.,.6.,.-.& < h k k k k   .     k k k k k y ",
"y k k k k k k k k k k k k k k j < : <.M.D.M.<., : h k k k k k k   k k k k k k y ",
"y k k k k k k k k k k k k k k h < , 1.F.U.F.4., < h k k k k k k k k k k k k k y ",
"y k k k k k k k k k k k k k k k k k V k k k k k k k k k k k k k k k k k k k k y ",
"y k k . k k k k k k k k k k k k k k k k k k k k k k k k k k k k k k k k k k k y ",
"y y y   y y y y y y y y y         y y y y y y y y y y y y y y y y y y y y y y y "
};
