/* XPM */
static char *d49bbcbe70a84991a60d5e2f16e81013Zjdy1RzND3cDZPwg[] = {
/* columns rows colors chars-per-pixel */
"40 40 59 1 ",
"  c gray2",
". c #2C1E27",
"X c #3D2936",
"o c #898586",
"O c #8C8889",
"+ c #8D898A",
"@ c #8E8A8B",
"# c #949091",
"$ c #989495",
"% c #999596",
"& c #9A9697",
"* c #9C999A",
"= c #9D9A9B",
"- c #9E9B9C",
"; c #9F9C9D",
": c #A09D9E",
"> c #A19E9F",
", c #A29FA0",
"< c #A4A1A2",
"1 c #A6A3A4",
"2 c #A8A5A6",
"3 c #A9A6A7",
"4 c #ACA9AA",
"5 c #ADAAAB",
"6 c #AEABAC",
"7 c #B0ADAE",
"8 c #B2AFB0",
"9 c #B3B0B1",
"0 c #B4B1B2",
"q c #B5B3B4",
"w c #B6B4B5",
"e c #BAB8B9",
"r c #BBB9BA",
"t c #BCBABB",
"y c #BEBCBD",
"u c #BFBDBE",
"i c #C0BEBF",
"p c #C1BFC0",
"a c #C2C0C1",
"s c #C4C2C3",
"d c #C5C3C4",
"f c #C6C4C5",
"g c #C7C5C6",
"h c #C8C6C7",
"j c #C9C7C8",
"k c #CAC8C9",
"l c #CBC9CA",
"z c #CCCACB",
"x c #CDCBCC",
"c c #CECDCD",
"v c #D0CFCF",
"b c #D2D1D1",
"n c #D6D5D5",
"m c #D9D8D8",
"M c #DAD9D9",
"N c #DDDCDC",
"B c #DEDDDD",
"V c #E2E1E1",
"C c #E6E5E5",
/* pixels */
"................................... ....",
".XXXXXXXXXXXXXXXXXXXXXXXXXXXXXXXXXX XXX.",
".XXXXXXXXXXXXXXXXXXXXXXXXXXXXXXXXXXXXXX.",
" XXXXXXXXXXXXXXXXXXXXXXXXXXXXXXXXXXXXXX.",
" XXXXXXXXXXXXXXXXXXXXXXXXXXXXXXXXXXXXXX.",
" XXXXXXXXXXXXXXXXXXXXXXXXXXXXXXXXXXXXXX.",
" XXXXX   XXXXXXXXNNNNVCXXXXXXXXXXXXXXXX.",
".XXXXXXXXXXXXXqNv5;<<2rNVjXXXXXXXXXXXXX.",
".XXXXXXXXXXXrki<$qisjxr:-rnNXXXXXXXXXXX.",
".XXXXXXXXXXfaqqisdxnnbxjr,<qNXXXXXXXXXX.",
".XXXXXXXXXdywppdhxnnNnhspar25N    XXXXX.",
".XXXXXXXXfywaaayrnnjxnvddppa25CXXXXXXXX.",
".XXXXXXX2swaapdp,vnq1ccpappas5yNXXXXXXX.",
".XXXXXXXdqppadcc5nnrqjchdaapsp2N#XXXXXX.",
".XXXXXX=swappqnnnvvnhdccjhshcb6yvXXXXXX.",
".XXXXXXkjyddp=sxvhseeyhicchcbca2CXXXXXX.",
".XXXXXXfbpfhv1,$rfv>=&rscnxbchx>BOXXXXX.",
".XXXXX,bvfvvvvk*rsvhx7>sxnvvjxverCXXXXX.",
".XXXXX>npvnvvhp:rsxvhkihshvxvvnx3VXXXXX.",
".XXXXX>mvvvvvsi*rihxkhhhsnhvnnnj1BXXXXX.",
".XXXXX>Mnvvvfir%rsh><:qcvvvnnnnh,BXXXXX.",
".XXXXX,Bnnvffpp:ricrrh5rhnnnnnvs>BXXXXX.",
".XXXXX1Bnvfpppi:rsncbn57vBNnnvhq7VXXXXX.",
".XXXXXXvmkfpirhprhnnnnhhnnnvchs$vXXXXXX.",
".XXXXXXvnffir:iksfvnnhvnvivvhsi,BXXXXXX.",
".XXXXXXonvipr%::1vn5ens1qxvhsiws0XXXXXX.",
".XXXXXXXsbkirr87:kn,7nnihvhfiiwkXXXXXXX.",
" XXXXXXX@nvsfskf>vnqrnnnbhiipwsrXXXXXXX.",
"  XXXXXXXenxhsxx%>vr$qnvksiieifXXXXXXXX ",
" XXXXXXXXXemvvvviivvhhvhsfpwrfXXXXXXXXX ",
".XXXXXXXXXXiBmBxvnnnnvhsiqqsfXXXXXXXXXX ",
".XXXXXXXXXXX#xBBBnnmnkvnxis>XXXXXXXXXXX ",
".XXXXXXXXXXXXXOkzBBNmmvpk:XXXXXXXXXXXXX.",
".XXXXXXXXXXXXXXXX3>:%%:XXXXXXXX XXXXXXX.",
".XXXXXXXXXXXXXXXXXXXXXXXXXXXXX    XXXXX.",
".XXXXXXXXXXXXXXXXXXXXXXXXXXXXXXX XXXXXX.",
".XXXXXXXXXXXXXXXXXXXXXXXXXXXXXXXXXXXXXX.",
".XXXXXXXXXXXXXXXXXXXXXXXXXXXXXXXXXXXXXX.",
".XX XXXXXXXXXXXXXXXXXXXXXXXXXXXXXXXXXXX.",
"... .........    ......................."
};
