/* XPM */
static char *result[] = {
/* columns rows colors chars-per-pixel */
"40 40 197 2 ",
"   c gray2",
".  c #001D02",
"X  c #021D04",
"o  c #002300",
"O  c #002400",
"+  c #002600",
"@  c #052306",
"#  c #052307",
"$  c #002B00",
"%  c #002E00",
"&  c #033907",
"*  c #043907",
"=  c #09370C",
"-  c #063F0A",
";  c #073E0B",
":  c #083B0B",
">  c #0A390D",
",  c #083B0C",
"<  c #0B3A0D",
"1  c #0A3B0D",
"2  c #093C0C",
"3  c #0A3C0D",
"4  c #0B3C0E",
"5  c #0E2E10",
"6  c #0E2F10",
"7  c #2C1E27",
"8  c #1F3120",
"9  c #1E3820",
"0  c #1E3920",
"q  c #273829",
"w  c #3D2936",
"e  c #064009",
"r  c #054209",
"t  c #07420B",
"y  c #044408",
"u  c #054609",
"i  c #08420B",
"p  c #08430C",
"a  c #0A430E",
"s  c #09460D",
"d  c #09470D",
"f  c #0A450E",
"g  c #09480D",
"h  c #0A480E",
"j  c #0A4B0E",
"k  c #0D4510",
"l  c #0E4611",
"z  c #164719",
"x  c #144818",
"c  c #174A19",
"v  c #184C1B",
"b  c #155719",
"n  c #165A19",
"m  c #16591A",
"M  c #17591A",
"N  c #1A5B1D",
"B  c #1B5A1E",
"V  c #1A5C1E",
"C  c #1C5E1F",
"Z  c #1B661F",
"A  c #1F5121",
"S  c #205322",
"D  c #27562A",
"F  c #2C5F2E",
"G  c #2F5231",
"H  c #305831",
"J  c #1F6A24",
"K  c #206B24",
"L  c #216A25",
"P  c #216B25",
"I  c #206C25",
"U  c #216D25",
"Y  c #226C26",
"T  c #226D26",
"R  c #226C27",
"E  c #236C27",
"W  c #236D27",
"Q  c #226F26",
"!  c #236E27",
"~  c #246D28",
"^  c #246E28",
"/  c #256F29",
"(  c #227127",
")  c #257029",
"_  c #25702A",
"`  c #26712A",
"'  c #26722A",
"]  c #27722B",
"[  c #27752B",
"{  c #27742C",
"}  c #28732B",
"|  c #28732C",
" . c #29732C",
".. c #28742C",
"X. c #28752C",
"o. c #29742D",
"O. c #2A782E",
"+. c #2B792E",
"@. c #2D7A30",
"#. c #2D7B30",
"$. c #2D7B31",
"%. c #2E7B31",
"&. c #2E7C31",
"*. c #2E7D31",
"=. c #2F7D31",
"-. c #2F7C32",
";. c #2F7D32",
":. c #2F7E32",
">. c #2F7F32",
",. c #307E32",
"<. c #307E33",
"1. c #307F33",
"2. c #307F34",
"3. c #308033",
"4. c #318033",
"5. c #318034",
"6. c #318134",
"7. c #318234",
"8. c #318235",
"9. c #318335",
"0. c #328234",
"q. c #328335",
"w. c #328336",
"e. c #338537",
"r. c #358638",
"t. c #348738",
"y. c #358939",
"u. c #368A3A",
"i. c #378B3B",
"p. c #378C3B",
"a. c #388C3B",
"s. c #388B3C",
"d. c #388C3C",
"f. c #388D3C",
"g. c #388E3C",
"h. c #388F3C",
"j. c #388E3D",
"k. c #398E3D",
"l. c #398F3D",
"z. c #3A8F3D",
"x. c #388F3E",
"c. c #3A8F3E",
"v. c #39903D",
"b. c #3A903D",
"n. c #39933D",
"m. c #3A903E",
"M. c #3A913E",
"N. c #3A913F",
"B. c #3B923F",
"V. c #3B933F",
"C. c #3C933F",
"Z. c #3C943F",
"A. c #3C9440",
"S. c #3B9A40",
"D. c #3F9A43",
"F. c #3F9D43",
"G. c #3F9B44",
"H. c #409B44",
"J. c #409C44",
"K. c #419E45",
"L. c #419F45",
"P. c #429E46",
"I. c #429F46",
"U. c #42A046",
"Y. c #43A047",
"T. c #43A147",
"R. c #43A347",
"E. c #45A149",
"W. c #44A248",
"Q. c #44A348",
"!. c #45A349",
"~. c #47A34B",
"^. c #45A449",
"/. c #45A549",
"(. c #49AD4D",
"). c #4AAD4E",
"_. c #4AAE4E",
"`. c #4AAF4E",
"'. c #4AAE4F",
"]. c #4BAF4F",
"[. c #4CA450",
"{. c #4FA853",
"}. c #52A356",
"|. c #53A757",
" X c #4FB053",
".X c #5EAE62",
"XX c #6BBD6F",
"oX c #6DBD70",
"OX c #6FBF72",
"+X c #70BF73",
"@X c #7EC581",
"#X c #80C683",
"$X c #A5D5A8",
"%X c #A9D6AA",
"&X c #ABD8AD",
"*X c #AED9B0",
"=X c #AEDAB0",
/* pixels */
"7 7 7 7 7 7 7 7 7 7 7 7 7 7 7 7 7 7 7 7 7 7 7 7 7 7 7 7 7 7 7 7 7 7 7   7 7 7 7 ",
"7 w w w w w w w w w w w w w w w w w w w w w w w w w w w w w w w w w w   w w w 7 ",
"7 w w w w w w w w w w w w w w w w w w w w w w w w w w w w w w w w w w w w w w 7 ",
"  w w w w w w w w w w w w w w w w w w w w w w w w w w w w w w w w w w w w w w 7 ",
"  w w w w w w w w w w w w w w w w w w w w w w w w w w w w w w w w w w w w w w 7 ",
"  w w w w w w w w w w w w w w w w w w w w w w w w w w w w w w w w w w w w w w 7 ",
"  w w w w w       w w w w w w w w w w w w w w w w w w w w w w w w w w w w w w 7 ",
"7 w w w w w w w w w w w w w w w w w w w w w w w w w w w w w w w w w w w w w w 7 ",
"7 w w w w w w w w w w w w w w w w w w w w w w w w w w w w w w w w w w w w w w 7 ",
"7 w w w w w w w w w w w w w w w w w w w w w w w w w w w w w w w w w w w w w w 7 ",
"7 w w w w w w w w w w w w q & 2 2 2 : , , , , , * 8 w w w w         w w w w w 7 ",
"7 w w w w w w w w w w w w G Z R W ) ' ` ` ` ` ` ( H w w w w w w w w w w w w w 7 ",
"7 w w w w w w w w X 1 > <  .:.u.k.D.W.T.T.T.T.T.R.n.4 = 3 . w w w w w w w w w 7 ",
"7 w w w w w w w w z J L P &.1.p.M.D.Y.I.I.Y.W.!.{.}._ Y K x w w w w w w w w w 7 ",
"7 w w w w w w # c %.;.p.f.f.s.D.U.I.I.I.P./.`. X#X%XE.S.>.$.v @ w w w w w w w 7 ",
"7 w w w w w w l U 1.2.p.f.l.l.G.U.I.I.I.P./.`. X#X*X.X|.r.6.Q k w w w w w w w 7 ",
"7 w w w w 5 A #.>.d.d.f.f.H.I.I.I.I.I.I.P./.`. X@X&X=X$X[.F.8.@.S 6 w w w w w 7 ",
"7 w w w w e I 3.7.f.f.f.f.J.U.I.I.I.I.I.P.^.(. XXXOX+XoX~.L.t.6.T r w w w w w 7 ",
"7 w w w w ; ~ g.d.f.f.f.f.J.U.I.I.I.I.I.I.I.I.^.].`.].'.T.I.K.Y.X.- w w w w w 7 ",
"7 w w w w a / l.f.f.f.f.f.J.U.I.I.I.I.I.I.I.P.Q._._._.).T.I.I.W.O.f w w w w w 7 ",
"7 w w 9 D +.1.g.f.f.f.f.f.J.U.I.I.I.I.I.I.I.I.I.T.T.T.T.I.I.I.U.b.y.F 0 w w w 7 ",
"7 w w y U ,.6.g.f.f.f.f.f.J.U.I.I.I.I.I.I.I.I.I.I.I.I.I.I.I.I.U.Z.M.[ u w w w 7 ",
"7 w w s E =.6.g.f.f.f.f.f.v.c.H.U.I.I.I.I.I.I.I.I.I.I.I.I.I.I.U.C.l.o.h w w w 7 ",
"7 w w s E =.6.g.f.f.f.f.f.d.s.D.U.I.I.I.I.I.I.I.I.I.I.I.I.I.I.U.C.l.o.h w w w 7 ",
"7 w w s E =.6.g.f.f.f.f.f.f.f.m.M.M.V.K.I.I.I.I.I.I.I.I.I.I.A.M.k.m.o.h w w w 7 ",
"7 w w s E =.6.h.g.f.f.f.f.f.f.d.d.d.k.L.U.U.U.U.U.U.U.U.U.U.M.s.f.N.o.h w w w 7 ",
"7 w w g ! :.;.5.q.f.f.f.f.f.f.f.f.f.g.M.B.B.B.B.B.B.B.B.B.B.k.j.e.0.` j w w w 7 ",
"  w w $ V 7.*.@.<.j.j.j.j.f.f.f.f.f.f.d.d.d.d.d.d.d.d.d.f.f.g.x.9.4.C % w w w 7 ",
"    w w w m ' -.;.8.8.8.8.i.g.f.f.f.f.f.f.f.f.f.f.f.f.a.w.8.8.w.{ n w w w w w   ",
"  w w w w O b 7.;.=.=.=.=.p.M.m.m.m.m.m.m.m.m.m.m.m.m.z.1.=.*.6.M + w w w w w   ",
"7 w w w w w w B ^ E E E E ] ..| | | | | | | | | | | | } ~ E ^ N w w w w w w w   ",
"7 w w w w w w o d p p p p i t t t t t t t t t t t t t t p p d o w w w w w w w   ",
"7 w w w w w w w w w w w w w w w w w w w w w w w w w w w w w w w w w w w w w w 7 ",
"7 w w w w w w w w w w w w w w w w w w w w w w w w w w w w w w   w w w w w w w 7 ",
"7 w w w w w w w w w w w w w w w w w w w w w w w w w w w w w         w w w w w 7 ",
"7 w w w w w w w w w w w w w w w w w w w w w w w w w w w w w w w   w w w w w w 7 ",
"7 w w w w w w w w w w w w w w w w w w w w w w w w w w w w w w w w w w w w w w 7 ",
"7 w w w w w w w w w w w w w w w w w w w w w w w w w w w w w w w w w w w w w w 7 ",
"7 w w   w w w w w w w w w w w w w w w w w w w w w w w w w w w w w w w w w w w 7 ",
"7 7 7   7 7 7 7 7 7 7 7 7         7 7 7 7 7 7 7 7 7 7 7 7 7 7 7 7 7 7 7 7 7 7 7 "
};
