/* XPM */
static char *result[] = {
/* columns rows colors chars-per-pixel */
"40 40 160 2 ",
"   c #050404",
".  c #080403",
"X  c #0A0806",
"o  c #010108",
"O  c #09060C",
"+  c #0A0A0A",
"@  c #06090C",
"#  c #160500",
"$  c #1A0000",
"%  c #1F0C06",
"&  c #160C09",
"*  c #0E0D14",
"=  c #07091C",
"-  c #131115",
";  c #191116",
":  c #1E1B16",
">  c #1D141A",
",  c #1C1D18",
"<  c #200000",
"1  c #250D07",
"2  c #2A0E07",
"3  c #310D05",
"4  c #2F1007",
"5  c #301007",
"6  c #3C1306",
"7  c #2B1911",
"8  c #21171D",
"9  c #23181E",
"0  c #2E1818",
"q  c #251314",
"w  c #2C251D",
"e  c #0E0F20",
"r  c #000E2A",
"t  c #1B1926",
"y  c #1A1A2A",
"u  c #1E1E35",
"i  c #211722",
"p  c #251A22",
"a  c #2C1E27",
"s  c #2C1F28",
"d  c #1A2E2A",
"f  c #262120",
"g  c #212E27",
"h  c #2F202A",
"j  c #282B28",
"k  c #2E2A21",
"l  c #372C27",
"z  c #32222D",
"x  c #3A2F28",
"c  c #34312A",
"v  c #35382F",
"b  c #3D372A",
"n  c #22223B",
"m  c #372531",
"M  c #3A2734",
"N  c #3D2936",
"B  c #421102",
"V  c #561300",
"C  c #51180A",
"Z  c #691902",
"A  c #631B0A",
"S  c #7C1500",
"D  c #63290C",
"F  c #602E18",
"G  c #5B503B",
"H  c #282846",
"J  c #2D2D53",
"K  c #2D2E58",
"L  c #2F305A",
"P  c #2C3854",
"I  c #33335C",
"U  c #2A2C6E",
"Y  c #383865",
"T  c #3B3B6D",
"R  c #313372",
"E  c #3E3F74",
"W  c #313478",
"Q  c #3C3D78",
"!  c #505342",
"~  c #505A4A",
"^  c #645840",
"/  c #635A59",
"(  c #77694C",
")  c #75664B",
"_  c #746F58",
"`  c #4B486B",
"'  c #404076",
"]  c #4A4977",
"[  c #43437C",
"{  c #4B4979",
"}  c #535077",
"|  c #6E6562",
" . c #7A767F",
".. c #861D00",
"X. c #9C1C00",
"o. c #A41E00",
"O. c #AC1E00",
"+. c #8C2304",
"@. c #932403",
"#. c #9C2502",
"$. c #A42602",
"%. c #AB2903",
"&. c #B22C04",
"*. c #BE2C02",
"=. c #C92300",
"-. c #D62700",
";. c #D02A00",
":. c #D13400",
">. c #DB3401",
",. c #FF2C00",
"<. c #E73400",
"1. c #E93501",
"2. c #F23600",
"3. c #FE3400",
"4. c #FF3B00",
"5. c #A1532F",
"6. c #AC5D37",
"7. c #904D2D",
"8. c #FF4200",
"9. c #8C6D47",
"0. c #9A7E5C",
"q. c #8B886A",
"w. c #9C8B69",
"e. c #A48561",
"r. c #A2906D",
"t. c #A09173",
"y. c #BF9A71",
"u. c #ACA376",
"i. c #ABA77A",
"p. c #FF8147",
"a. c #FF8549",
"s. c #FF884B",
"d. c #FF9151",
"f. c #FF9A58",
"g. c #3D3F82",
"h. c #464681",
"j. c #494987",
"k. c #4B4B8A",
"l. c #6E6884",
"z. c #6C6581",
"x. c #ABB182",
"c. c #B4A49D",
"v. c #B7A8A0",
"b. c #B7B1A6",
"n. c #D7BF8B",
"m. c #CAB69D",
"M. c #CEBAA0",
"N. c #DCC48E",
"B. c #C5CE9F",
"V. c #C5C196",
"C. c #FFD197",
"Z. c #FFD79B",
"A. c #FFDC9F",
"S. c #C5D9AE",
"D. c #FEE4AD",
"F. c #FFEBA8",
"G. c #FFEBB1",
"H. c #FFF6BB",
"J. c #FFF9B9",
"K. c #FFFFC6",
/* pixels */
"a a s a a a a a h a a a a a a a > + X X @ X X > a a h h p h h p s a a   a a a a ",
"a N N N N N N N N N N N l z m z 8 * * - - - * i z z z M N N N N N N N X N N N a ",
"a N N N N N N N N N N z p ; ; ; t H J H H J H t > ; ; 9 l N N N N N N N N N N a ",
"  N N N N N N N N N N h - X   + n E h.[ [ [ T n +   X - s N N N N N N N N N N a ",
"  N N N N N N N N z p t y n u n I ' j.[ h.j.[ I n n n y i p z N N N N N N N N a ",
"X N N N N N N N N 9 & y J E T Y T E ' ' ' ' ' T Y T ' J y & p N N N N N N N N a ",
"  N N N N N       8   y Y k.k.h.' ' Q ' ' E E ' [ k.k.Y y   > N N N N N N N N a ",
"h N N N N N N N N 8 X y I j.h.' ' ' ' E ' ' E ' ' h.h.I y X 8 N N N N N N N N a ",
"a N N N N N N N N 8 X y I [ [ E ' E E ' ' E E E ' [ h.I y X 8 N N N N N N N N s ",
"a N N N N N N N N 8 X y I [ [ Q E E ' E E E ' E ' ' [ I y X 8 N N N N N N N N a ",
"a N N N N N N N N 9 X y I h.[ E E ' ' E E ' E E ' [ [ I y X         N N N N N s ",
"a N N N N N N N N 9   = K { [ E E E E E ' E E E ' [ h.K =   9 N N N N N N N N s ",
"a N N N N N N N N 9 o e L [ [ E ' T ' ' E E E E Q [ h.L - O i N N N N N N N N a ",
"s N N N N N M z a l G / ` Q Q E E ' E ' E E E E E Q Q ` / G l a h N N N N N N a ",
"a N N N N N m > & ( N.m.z.R R E E E ' T Q E E E E R U z.M.N.) + > m N N N N N a ",
"a N N N N N m > + ( N.M.l.R R Q T E T E Q T E T E R W z.M.N.( & > m N N N N N a ",
"s N N N N N M s p x ^ | } g.W U U U U U U U U U U W g.} | ^ x p s M N N N N N a ",
"s N N N N N N N N p   e K [ { ] ] ] ] ] ] ] ] ] ] ] [ K e . 9 N N N N N N N N s ",
"s N N N N N N N N p   o r P  .v.b.c.c.c.c.c.c.b.v.l.P r o   a N N N N N N N N s ",
"s N N N N N N N N p o   o j t.G.H.D.D.D.D.D.D.H.G.t.j     O p N N N N N N N N s ",
"a N N N N N N z a 0 C V V D 9.i.x.u.u.u.u.u.u.x.i.9.D V V C 0 a z N N N N N N s ",
"a N N N N N N i * C &.:.:.%.F d d d g g g g d d d F &.:.:.&.C * i N N N N N N a ",
"a N N N N z s q 6 #.4.8.8.2.S $ $ $ < < < < $ $ $ S 2.8.8.4.@.6 q s z N N N N a ",
"a N N N N ; q A %.>.4.8.8.4.;.X.X.X.X.X.o.X.o.X.X.;.4.8.8.3.>.%.A q ; N N N N a ",
"a N N N N X 2 $.4.8.4.2.<.<.4.4.4.4.4.4.4.4.4.8.4.2.<.<.2.4.4.4.$.2   N N N N a ",
"s N N N N X 1 o.,.,.,.=...+.>.8.8.4.8.8.8.8.8.8.8.>.+...=.,.3.,.o.2 X N N N N a ",
"a N N N N X 1 @.3.4.4.$.1 % @.4.8.4.4.4.4.3.4.4.4.@.1 2 $.3.4.3.@.1   N N N N s ",
"  N N N N X 7 5.s.f.d.6., o B @.@.+.@.+.+.+.+.@.@.B o , 6.d.f.s.5.7 @ N N N N s ",
"    N N N X 0 e.A.J.F.y.b     & & & & & & & & & &     b y.F.J.A.e.w O N N N N   ",
"  N N N N - f _ V.S.B.q.l . $ 1 2 1 4 5 4 4 1 1 1 $   c q.B.S.V._ w - N N N N   ",
"h N N N N h h c ! ~ ! v - % Z %.%.$.%.*.*.&.$.%.%.Z % - v ~ ~ G c h z N N N N   ",
"h N N N N N N >         o 4 %.4.8.4.4.2.2.4.4.4.4.%.4 o       o > M N N N N N   ",
"a N N N N N N z 8 8 > ; O 3 O.,.,.,.;.+.@.-.,.3.,.O.3 O ; 8 8 8 s N N N N N N s ",
"a M N N N N N N N N N a * 2 $.4.8.4.#.1 1 #.4.4.3.#.2 * a N N   N N N N N N N a ",
"h N N N N N N N N N N s * 7 5.p.d.a.7.+ @ 7.s.d.p.5.7 & h N         N N N N N a ",
"a N N N N N N N N N N a X w e.C.D.Z.e.: : 0.Z.D.C.e.k O a N N N   N N N N N N a ",
"a N N N N N N N N N N a O k r.D.K.G.w., : w.G.K.D.r.k O a N N N N N N N N N N a ",
"f N N N N N N N N N N N N N N N N N N N N N N N N M N N N N N N N N N N N N N a ",
"s N N   N N N N N N N N N N N N N N N N N N N N N N N N N N N N N N N N N N N a ",
"s s s o a a a a a a s s s         a a a a h a a s s s a a s a a h s a a a a a s "
};
