/* XPM */
static char *_703540062b648078c1857a3639998fftuAE3Xn6Xa1ds0q7[] = {
/* columns rows colors chars-per-pixel */
"40 40 59 1 ",
"  c gray2",
". c #2C1E27",
"X c #3D2936",
"o c #F35B1B",
"O c #F36021",
"+ c #F46123",
"@ c #F46325",
"# c #F46A30",
"$ c #F57038",
"% c #F5723A",
"& c #F5733C",
"* c #F5753F",
"= c #F57741",
"- c #F57843",
"; c #F57945",
": c #F57B47",
"> c #F67D49",
", c #F67E4B",
"< c #F6814F",
"1 c #F68352",
"2 c #F68656",
"3 c #F68758",
"4 c #F78C5E",
"5 c #F78D60",
"6 c #F78E62",
"7 c #F79165",
"8 c #F79369",
"9 c #F7956B",
"0 c #F7966D",
"q c #F89971",
"w c #F89B73",
"e c #F8A07A",
"r c #F8A17C",
"t c #F8A27E",
"y c #F9A582",
"u c #F9A784",
"i c #F9A886",
"p c #F9AA88",
"a c #F9AB8A",
"s c #F9AD8D",
"d c #F9AF8F",
"f c #F9B091",
"g c #F9B193",
"h c #F9B395",
"j c #FAB597",
"k c #FAB699",
"l c #FAB79B",
"z c #FAB99D",
"x c #FABA9F",
"c c #FABBA0",
"v c #FABEA4",
"b c #FAC0A8",
"n c #FBC6B0",
"m c #FBCAB5",
"M c #FBCBB7",
"N c #FCD0BD",
"B c #FCD1BF",
"V c #FCD6C6",
"C c #FCDCCE",
/* pixels */
"................................... ....",
".XXXXXXXXXXXXXXXXXXXXXXXXXXXXXXXXXX XXX.",
".XXXXXXXXXXXXXXXXXXXXXXXXXXXXXXXXXXXXXX.",
" XXXXXXXXXXXXXXXXXXXXXXXXXXXXXXXXXXXXXX.",
" XXXXXXXXXXXXXXXXXXXXXXXXXXXXXXXXXXXXXX.",
" XXXXXXXXXXXXXXXXXXXXXXXXXXXXXXXXXXXXXX.",
" XXXXX   XXXXXXXXNNNNVCXXXXXXXXXXXXXXXX.",
".XXXXXXXXXXXXXwNc5;<<3eNVjXXXXXXXXXXXXX.",
".XXXXXXXXXXXeku<%9pdlxt--tbVXXXXXXXXXXX.",
".XXXXXXXXXXfd0widdxbnbxje><0NXXXXXXXXXX.",
".XXXXXXXXXdywaidjxnnMnjdaae35N    XXXXX.",
".XXXXXXXXfywaaayenMlxnxddaaa34CXXXXXXXX.",
".XXXXXXX2dwaaafa<bm93xxpaaaaa5yNXXXXXXX.",
".XXXXXXXdwiaadcc4bnt9jxjdaaafi1V#XXXXXX.",
".XXXXXX=awaiiwbnnbxbjdxxjfffxb4ybXXXXXX.",
".XXXXXXkjydda*fcxfhreyhaccfcbxa3CXXXXXX.",
".XXXXXXhbadjx2<%udx<**edxbxbcfx<N+XXXXX.",
".XXXXX<bxjxbxxj*edxjj8>dcnbclxceeCXXXXX.",
".XXXXX;ndxbbbja*edxxjjyjfjbjcbnx2VXXXXX.",
".XXXXX>mbbbbxda*eahxjjjjfbjbnnnl<NXXXXX.",
".XXXXX<mbbbcdpr&taj<<-wxbcbnnnnj<NXXXXX.",
".XXXXX<Nnnzjdpa*eaxeef4tjnnnnbbd>NXXXXX.",
".XXXXX2Nnbfaapp*edbbbn59bNMnbbj97VXXXXX.",
".XXXXXXzmjdaarjaydnnnnjfnnnbxjd$bXXXXXX.",
".XXXXXXlnjapr*pjdjbnnjbnbubbhaa<NXXXXXX.",
".XXXXXXonxpar%-<2xb4ebd29zxjapwawXXXXXX.",
".XXXXXXXdbjprr07-jn<9nnujxjdppwjXXXXXXX.",
" XXXXXXX@Mxdddjd<xn9ennbbjpppwarXXXXXXX.",
"  XXXXXXXenxddzz&<xr%9nbjappwudXXXXXXXX ",
" XXXXXXXXXembbbbuubbhhbhfdpwudXXXXXXXXX ",
".XXXXXXXXXXuNmNxbnbnnbhhuwwafXXXXXXXXXX ",
".XXXXXXXXXXX#lNNNmnMbjbbzpa<XXXXXXXXXXX ",
".XXXXXXXXXXXXX@lzNNNmMbdj-XXXXXXXXXXXXX.",
".XXXXXXXXXXXXXXXX2>;%%-XXXXXXXX XXXXXXX.",
".XXXXXXXXXXXXXXXXXXXXXXXXXXXXX    XXXXX.",
".XXXXXXXXXXXXXXXXXXXXXXXXXXXXXXX XXXXXX.",
".XXXXXXXXXXXXXXXXXXXXXXXXXXXXXXXXXXXXXX.",
".XXXXXXXXXXXXXXXXXXXXXXXXXXXXXXXXXXXXXX.",
".XX XXXXXXXXXXXXXXXXXXXXXXXXXXXXXXXXXXX.",
"... .........    ......................."
};
