/* XPM */
static char *_a578ce85adf4671bee8945dee6bf7aeSG0PYCK0ud5BIrWC[] = {
/* columns rows colors chars-per-pixel */
"40 40 59 1 ",
"  c gray2",
". c #2C1E27",
"X c #3D2936",
"o c #861BF3",
"O c #8A21F3",
"+ c #8B23F4",
"@ c #8C25F4",
"# c #9030F4",
"$ c #9638F5",
"% c #973AF5",
"& c #983CF5",
"* c #993FF5",
"= c #9B41F5",
"- c #9B43F5",
"; c #9C45F5",
": c #9D47F5",
"> c #9F49F6",
", c #A04BF6",
"< c #A24FF6",
"1 c #A352F6",
"2 c #A656F6",
"3 c #A658F6",
"4 c #AA5EF7",
"5 c #AB60F7",
"6 c #AB62F7",
"7 c #AE65F7",
"8 c #AF69F7",
"9 c #B16BF7",
"0 c #B16DF7",
"q c #B471F8",
"w c #B573F8",
"e c #B97AF8",
"r c #BA7CF8",
"t c #BA7EF8",
"y c #BD82F9",
"u c #BE84F9",
"i c #BF86F9",
"p c #C088F9",
"a c #C18AF9",
"s c #C38DF9",
"d c #C48FF9",
"f c #C591F9",
"g c #C593F9",
"h c #C795F9",
"j c #C897FA",
"k c #C999FA",
"l c #CA9BFA",
"z c #CB9DFA",
"x c #CC9FFA",
"c c #CDA0FA",
"v c #CFA4FA",
"b c #D0A8FA",
"n c #D5B0FB",
"m c #D8B5FB",
"M c #D8B7FB",
"N c #DCBDFC",
"B c #DDBFFC",
"V c #E1C6FC",
"C c #E5CEFC",
/* pixels */
"................................... ....",
".XXXXXXXXXXXXXXXXXXXXXXXXXXXXXXXXXX XXX.",
".XXXXXXXXXXXXXXXXXXXXXXXXXXXXXXXXXXXXXX.",
" XXXXXXXXXXXXXXXXXXXXXXXXXXXXXXXXXXXXXX.",
" XXXXXXXXXXXXXXXXXXXXXXXXXXXXXXXXXXXXXX.",
" XXXXXXXXXXXXXXXXXXXXXXXXXXXXXXXXXXXXXX.",
" XXXXX   XXXXXXXXBNNNVCXXXXXXXXXXXXXXXX.",
".XXXXXXXXXXXXXwNc5-1<2rNVhXXXXXXXXXXXXX.",
".XXXXXXXXXXXrky<%0ifjct-=tnNXXXXXXXXXXX.",
".XXXXXXXXXXfs0wpsscbnbcjr><0NXXXXXXXXXX.",
".XXXXXXXXXdywppdjcnnMnjsaar26N    XXXXX.",
".XXXXXXXXfywaaaytnmlcncfsaaa26CXXXXXXXX.",
".XXXXXXX2swaaifa>bm02cciaiaaa6yNXXXXXXX.",
".XXXXXXXswaiadcc6vby0jcjfaaasa2N#XXXXXX.",
".XXXXXX=swaaawbnnbvbjscchhffxb6yvXXXXXX.",
".XXXXXXkjyddi*fccfhteyhiccfcbxa2CXXXXXX.",
".XXXXXXgbigjc3<$ysc>=*eflncbcgc>B+XXXXX.",
".XXXXX<bvgcvccj=efcjj8>scnbvjcveeCXXXXX.",
".XXXXX:nfcbvbji-tfccjjyjfjvkvvnc3VXXXXX.",
".XXXXX>mvbbbcsi=tihcjjjksbkvnnnj1BXXXXX.",
".XXXXX>mnvvvfit*rij><-qlbvvnnnnj<NXXXXX.",
".XXXXX<Nnncgfii=esctth4tjnnnnbvf>NXXXXX.",
".XXXXX3Bnbgisii-efbvvn60vNmnbvj06VXXXXX.",
".XXXXXXcmjfiitliysnnnnhfnnnbvjs%vXXXXXX.",
".XXXXXXlnhfiy=ijfjbnnjvnvivvjfi>NXXXXXX.",
".XXXXXXonciie%>:2cb4ebf30ccjsiqfqXXXXXX.",
".XXXXXXXfbjiee06=jn<0nnyjcjfiiqjXXXXXXX.",
" XXXXXXX@Mcsffjf<cn0ennnbjiiiwstXXXXXXX.",
"  XXXXXXXencgicc%>cy*0bvjfiieyfXXXXXXXX ",
" XXXXXXXXXeMbbvviyvcggbhffiwyfXXXXXXXXX ",
".XXXXXXXXXXiNMNcvnnnnbhfyqqsfXXXXXXXXXX ",
".XXXXXXXXXXX#lNNBmnMnjvbcif>XXXXXXXXXXX ",
".XXXXXXXXXXXXX@lcNBNmMbfj=XXXXXXXXXXXXX.",
".XXXXXXXXXXXXXXXX3:-$*-XXXXXXXX XXXXXXX.",
".XXXXXXXXXXXXXXXXXXXXXXXXXXXXX    XXXXX.",
".XXXXXXXXXXXXXXXXXXXXXXXXXXXXXXX XXXXXX.",
".XXXXXXXXXXXXXXXXXXXXXXXXXXXXXXXXXXXXXX.",
".XXXXXXXXXXXXXXXXXXXXXXXXXXXXXXXXXXXXXX.",
".XX XXXXXXXXXXXXXXXXXXXXXXXXXXXXXXXXXXX.",
"... .........    ......................."
};
