/* XPM */
static char *result[] = {
/* columns rows colors chars-per-pixel */
"40 40 10 1 ",
"  c #020202",
". c gray1",
"X c gray2",
"o c #190A13",
"O c #3D0400",
"+ c #230D1A",
"@ c #511915",
"# c #646464",
"$ c #766D71",
"% c #8E7876",
/* pixels */
"ooooooooooooooooooooooooooooooooooo oooo",
"o+++$$$$$$$$$$$$$$$$$$$$$$$$$$$$$$$#+++o",
"o+@@%%%%%%%%%%%%%%%%%%%%%%%%%%%%%%%%@@+o",
" +@@%%%%%%%%%%%%%%%%%%%%%%%%%%%%%%%%@@+o",
" +@@%%%%%%%%%%%%%%%%%%%%%%%%%%%%%%%%@@+o",
" +@@@@@@@@@@@@@@@@@@@@@@@@@@@@@@@@@@@@+o",
" +@@@@XXXO@@@@@@O@@@@@@@O@@@@@@@O@@@@@+o",
"o+@@@@@@@O@@@@@@O@@@@@@@O@@@@@@@O@@@@@+o",
"o+@@@@@@@O@@@@@@O@@@@@@@O@@@@@@@O@@@@@+o",
"o+@@@@@@@O@@@@@@O@@@@@@@O@@@@@@@O@@@@@+o",
"o+@@@@@@@O@@@@@@O@@@@@@@O@@@@@XX.X@@@@+o",
"o+@@@@@@@O@@@@@@O@@@@@@@O@@@@@@@O@@@@@+o",
"o+@@@@@@@O@@@@@@O@@@@@@@O@@@@@@@O@@@@@+o",
"o+@@@@@@@O@@@@@@O@@@@@@@O@@@@@@@O@@@@@+o",
"o+@@@@@@@O@@@@@@O@@@@@@@O@@@@@@@O@@@@@+o",
"o+@@@@@@@O@@@@@@O@@@@@@@O@@@@@@@O@@@@@+o",
"o+@@@@@@@O@@@@@@O@@@@@@@O@@@@@@@O@@@@@+o",
"o+@@@@@@@O@@@@@@O@@@@@@@O@@@@@@@O@@@@@+o",
"o+@@@@@@@O@@@@@@O@@@@@@@O@@@@@@@O@@@@@+o",
"o+@@@@@@@O@@@@@@O@@@@@@@O@@@@@@@O@@@@@+o",
"o+@@@@@@@O@@@@@@O@@@@@@@O@@@@@@@O@@@@@+o",
"o+@@@@@@@O@@@@@@O@@@@@@@O@@@@@@@O@@@@@+o",
"o+@@@@@@XO@@X@@@O@@@@@@@O@@@@@@@O@@@@@+o",
"o+@@@@@@@O@@@@@@O@@@@@@@O@@@@@@@O@@@@@+o",
"o+@@@@@@@O@@@@@@O@@@@@@@O@@@@@@@O@@@@@+o",
"o+@@@@@@@O@@@@@@O@@@@@@@O@@@@@@@O@@@@@+o",
"o+@@@@@@@O@@@@@@O@@@@@@@O@@@@@@@O@@@@@+o",
" +@@@@@@@O@@@@@@O@@@@@@@O@@@@@@@O@@@@@+o",
"  @@@@@@@O@@@@@@O@@@@@@@O@@@@@@@O@@@@@+ ",
" +@@@@@@@@@@@@@@@@@@@@@@@@@@@@@@@@@@@@+ ",
"o+@@@@@@@@@@@@@@%%%%%%%%%@@@@@@@@@@@@@+ ",
"o+@@@@@@@@@@@@@@%%%%%%%%%@@@@@@@@@@@@@+ ",
"o+@@@@@@@@@@@@@@%%%%%%%%%@@@@@@@@@@@@@+o",
"o+@@@@@@@@@@@@@@%%%%%%%%%@@@@@@X@@@@@@+o",
"o+@@@@@@@@@@@@@@%%%%%%%%%@@@@@XXXX@@@@+o",
"o+@@@@@@@@@@@@@@@@@@@@@@@@@@@@@@X@@@@@+o",
"o+@@@@@@@@@@@@@@@@@@@@@@@@@@@@@@@@@@@@+o",
"o+@@@@@@@@@@@@@@@@@@@@@@@@@@@@@@@@@@@@+o",
"o++ +++++++++++++++++++++++++++++++++++o",
"ooo ooooooooo    ooooooooooooooooooooooo"
};
