/* XPM */
static char *result[] = {
/* columns rows colors chars-per-pixel */
"40 40 164 2 ",
"   c #040405",
".  c #050709",
"X  c #06090A",
"o  c #090909",
"O  c #0C0706",
"+  c #140100",
"@  c #1E0000",
"#  c #130A07",
"$  c #1A0C07",
"%  c #110B0F",
"&  c #180D0A",
"*  c #14110F",
"=  c #0A0910",
"-  c #0C0D1B",
";  c #070A16",
":  c #130E12",
">  c #0D1616",
",  c #171313",
"<  c #1A1116",
"1  c #13121C",
"2  c #1C151B",
"3  c #2A0000",
"4  c #2B0F07",
"5  c #2F1007",
"6  c #331107",
"7  c #25171C",
"8  c #281718",
"9  c #27211F",
"0  c #29241C",
"q  c #2C281F",
"w  c #141421",
"e  c #1A1A2D",
"r  c #1E1C31",
"t  c #251A23",
"y  c #2C1E27",
"u  c #201E31",
"i  c #2E2B23",
"p  c #2F2029",
"a  c #242E27",
"s  c #332C23",
"d  c #32222D",
"f  c #38302A",
"g  c #363126",
"h  c #372530",
"j  c #392632",
"k  c #3D2936",
"l  c #353131",
"z  c #29283C",
"x  c #460000",
"c  c #480000",
"v  c #5C1B0A",
"b  c #6C0B00",
"n  c #661B08",
"m  c #701600",
"M  c #7A1600",
"N  c #7A1E04",
"B  c #7C2409",
"V  c #443A2C",
"C  c #463F31",
"Z  c #4D4434",
"A  c #524C3A",
"S  c #524D37",
"D  c #5D543E",
"F  c #131748",
"G  c #202248",
"H  c #252442",
"J  c #2E2E53",
"K  c #2B2C5A",
"L  c #303056",
"P  c #3A3857",
"I  c #33335B",
"U  c #2D2E6E",
"Y  c #262965",
"T  c #2E306F",
"R  c #383865",
"E  c #3C3C6E",
"W  c #373764",
"Q  c #343571",
"!  c #3E3E74",
"~  c #544D44",
"^  c #495443",
"/  c #5B5643",
"(  c #585048",
")  c #525544",
"_  c #524C59",
"`  c #6B5F49",
"'  c #645744",
"]  c #6D624D",
"[  c #7F725D",
"{  c #414176",
"}  c #44447D",
"|  c #4B497D",
" . c #60597B",
".. c #A61C02",
"X. c #942503",
"o. c #992503",
"O. c #AA2C06",
"+. c #B72B02",
"@. c #C92A02",
"#. c #DA2400",
"$. c #D43101",
"%. c #FF2900",
"&. c #EF3600",
"*. c #F63800",
"=. c #FF3B00",
"-. c #9C421F",
";. c #89593C",
":. c #FF4100",
">. c #F74109",
",. c #FF7233",
"<. c #926F4F",
"1. c #84765A",
"2. c #847656",
"3. c #A16542",
"4. c #8F7F60",
"5. c #7F8166",
"6. c #FF803B",
"7. c #8D8260",
"8. c #978766",
"9. c #8F8F70",
"0. c #9A9877",
"q. c #A4936E",
"w. c #A9977A",
"e. c #B9A67A",
"r. c #F9955D",
"t. c #464681",
"y. c #4A4985",
"u. c #5C5882",
"i. c #4E4E90",
"p. c #79718C",
"a. c #887E88",
"s. c #8E828A",
"d. c #92858C",
"f. c #9D9798",
"g. c #A69890",
"h. c #9BAA89",
"j. c #B1A19D",
"k. c #C2AD82",
"l. c #CBB486",
"z. c #D0B98B",
"x. c #D7C08A",
"c. c #DCC393",
"v. c #DFC79E",
"b. c #DFCD98",
"n. c #D4C896",
"m. c #DCD49F",
"M. c #FFC78C",
"N. c #E7CE9A",
"B. c #E3DD96",
"V. c #CCC2A1",
"C. c #E7CFA2",
"Z. c #E3D6A0",
"A. c #ECD2A3",
"S. c #F7DAA4",
"D. c #FFDEA2",
"F. c #FEE5AB",
"G. c #FCEAAE",
"H. c #F9E5A8",
"J. c #FFF1AE",
"K. c #FFEAB0",
"L. c #FFF5B0",
"P. c #FFF8BA",
"I. c #F7F5B5",
"U. c #FFFFC5",
/* pixels */
"y y y y y y y y y y y y y y y y y y y y p p y p y y p y y p y y y y y . y y y y ",
"y k k k k k k k k k k k k k k k k k k k k k j k k j k k j k k k k k k . k k k y ",
"y k k k k k k k k k k k k k k k k k k k k k k k k k k k k k k k k k k k k k k y ",
"  k k k k k k k k k k k k k j 2 X X O O X X O 2 j k k k k k k k k k k k k k k y ",
"  k k k k k k k k k k h d d y 2 1 1 1 1 1 1 1 1 p d d h j k k k k k k k k k k y ",
"  k k k k k k k k k d t < : : u L I J J J I I r , : , 7 d k k k k k k k k k k y ",
"  V k k k k       k d : . . w L t.y.} } } y.t.J w . X , d k k k k k k k k k k y ",
"y k k k k k k k k k h % O e L E } } } } } } } E J e O % j k k k k k k k k k k y ",
"y k k k k k k k k k d : w L t.} ! ! ! ! ! ! ! } t.J w : d k k k k k k k k k k y ",
"y k k k k k k k k w t u J Q } } { ! ! ! { { ! } } ! J r 2 2 k k V j k k k k k y ",
"y k k k k k k k k . - J t.} ! ! ! ! ! ! ! ! ! ! ! } t.L 1 X     .   k k k k k y ",
"y k k k k k k k k O w W i.y.! Q T T T E ! { { ! ! } y.I 1 o k k k k k k k k k y ",
"y k k k k k k k k . 1 L t.} ! ! ! ! ! ! ! ! ! ! ! } } J 1 O k k k k k k k k k y ",
"y k k k k k k k k 7 w u J Y Q p.f.f.s. .T U ! { } t.} J 1 X k k k k k k k k k y ",
"y k k k k k k k k j d : - F | j.G.I.A.s.Q U ! { { t.t.J 1 X k k k k k k k k k y ",
"y k k k k k k k k k h : & _ d.w.e.B.J.V.s.u.} Y G K } I 1 X k k k k k k k k k y ",
"y k k k k k k k k k d : q w.v.] q 7.F.I.N.f.y.F ; r ! R w . V k k k k k k k k y ",
"y k k k k k k k k k d & s x.H.Z   ' F.U.J.g.L z D ( P H w < k k k k k k k k k y ",
"y k k k k k k k k k d % s l.S.Z   ` F.U.G.1.; ) N.e.l : y d k k k k k k k k k y ",
"y k k k k k k k k k d * s e.G.8.Z q.G.U.K.q.S [ z.8.0 7 j k k k k k k k k k k y ",
"y k k k k k k k k k p o s j.L.H.c.S.P.U.P.G.b.q.' h y d k k k k k k k k k k k y ",
"y k k k k k k k k k h < 9 1.n.B.N.c.l.l.z.m.N.1.  1 j k k k k k k k k k k k k y ",
"y k k k k k k k   k j h o f A / D C s V A A ^ a   : h k k k k k k k k k k k k y ",
"y k k k k k k k k k k k j 2 O     O , X     +   . < h k k k k k k k k k k k k y ",
"y k k k k k k k k k k k k d 7 o   ] w.)   x ..m   1 j V k k k k k k k k k k k y ",
"y k k k k k k k k k k k k k k < , q.S.5.. b &.+.6 < d j k k k k k k k k k k k y ",
"y k k k k k k k k k k k k k k 2 % Z ] i   @ n X.o.n 7 t h k k k k k k k k k k y ",
"  k k k k k k k k k k k k k h < X X o o o . . N *.@.5 1 d k k k k k k k k k k y ",
"  . k k k k k k k k k k k k j < % Z 2.9.8.;.B @.=.#.6 = y k k k k k k k k k k   ",
"  k k k k k k k k k k k k k j < * 7.F.U.D.r.=.%.=.O.4 - d k k k k k k k k k k . ",
"y k k k k k k k k k k k k k h < > / 0.h.0.<.O...X.v 7 t j k k k k k k k k k k . ",
"y k k k k k k k k k k k k k h 2 X o > > > : & $ $ 7 d k k k k k k k k k k k k . ",
"y k k k k k k k k k k k k k j 2 O 3 c c c @   = 1 t k k k k k k k k k k k k k y ",
"y k k k k k k k k k k k k k h 2 # M #.#.#.M # 1 y j k k k k k   k k k k k k k y ",
"y k k k k k k k k k k k k V h 1 & -.,.6.,.-.& 2 k k k k k k   .   . k k k k k y ",
"y k k k k k k k k k k k k j j : : <.M.D.M.<., : j k k k k k k k   k k k k k k y ",
"y k k k k k k k k k k k k k j : : 4.F.U.F.4.: < j k k k k k k k j V k k k k k y ",
"y k k k k k k k k k k k k k k k k k k k k V j k k k k k k k k k k k k k k k k y ",
"y k k   k k k k k k k k k k k k k k k k k k k k k k k k k k k k k k k k k k k y ",
"y y y   y y y y y y y y y . . . . y y y y y y y y y y y y y y y y y y y y y y y "
};
