/* XPM */
static char *_9ce1f8176e244f3dbcb18dd6cdb83e5BbQ2rGgn3vyeVqEu[] = {
/* columns rows colors chars-per-pixel */
"40 40 2 1 ",
"  c black",
". c white",
/* pixels */
"....  ....  ....  ....  ....  ....  ....",
"........................................",
"........................................",
"....  ....  ....  ....  ....  ....  ....",
" ..    ..    ..   ....   ..    ..    .. ",
" ..          ..   ....   ..          .. ",
"....               ..               ....",
".....  .   .       ..       .   .  .....",
".....   . .        ..        . .   .....",
"....     .      .      .      .     ....",
" ..     . .     .      .     . .     .. ",
" ..    .   .   ..      ..   .   .    .. ",
"....        .  ..      ..  .        ....",
"......         ..      ..         ......",
"......         ..      ..         ......",
"....      .......      .......      ....",
" ..     .........      .........     .. ",
" ..                ..                .. ",
"......            ....            ......",
".........        ......        .........",
".........        ......        .........",
"......            ....            ......",
" ..                ..                .. ",
" ..     .........      .........     .. ",
"....      .......      .......      ....",
"......         ..      ..        .......",
"......         ..      ..        .......",
"....        .  ..      ..  .        ....",
" ..    .   .    .      .    .   .    .. ",
" ..     . .     .      .     . .     .. ",
"....     .                    .     ....",
".....   . .        ..        . .   .....",
".....  .   .       ..       .   .  .....",
"....               ..               ....",
" ..          ..   ....   ..          .. ",
" ..    ..    ..   ....   ..    ..    .. ",
"....  ....  ....  ....  ....  ....  ....",
"........................................",
"........................................",
"....  ....  ....  ....  ....  ....  ...."
};
